<svg preserveAspectRatio="none" width="100%" height="100%" overflow="visible" style="display: block;" viewBox="0 0 4.48083 7.62255" fill="none" xmlns="http://www.w3.org/2000/svg">
<path id="Vector" transform="matrix(-1 0 0 1 4.48083 0)" d="M2.81033 3.81283L0.2115 1.21417C0.0748334 1.07739 0.00538893 0.911334 0.00316671 0.716C0.0010556 0.520778 0.0705001 0.352611 0.2115 0.2115C0.352611 0.0705001 0.519722 0 0.712833 0C0.905944 0 1.07306 0.0705001 1.21417 0.2115L4.24367 3.241C4.32822 3.32567 4.38889 3.41372 4.42567 3.50517C4.46245 3.59661 4.48083 3.69917 4.48083 3.81283C4.48083 3.9265 4.46245 4.02906 4.42567 4.1205C4.38889 4.21195 4.32822 4.3 4.24367 4.38467L1.21417 7.41417C1.07739 7.55083 0.911333 7.62028 0.716 7.6225C0.520778 7.62461 0.352611 7.55517 0.2115 7.41417C0.0705001 7.27306 0 7.10595 0 6.91283C0 6.71972 0.0705001 6.55261 0.2115 6.4115L2.81033 3.81283Z" fill="var(--fill-0, #727272)"/>
</svg>
