<svg preserveAspectRatio="none" width="100%" height="100%" overflow="visible" style="display: block;" viewBox="0 0 14.25 11.25" fill="none" xmlns="http://www.w3.org/2000/svg">
<path id="Vector" d="M11.5239 6.17306C11.6836 6.17306 11.8173 6.11919 11.925 6.01144C12.0326 5.90381 12.0864 5.77019 12.0864 5.61056C12.0864 5.45094 12.0326 5.31731 11.925 5.20969C11.8173 5.10194 11.6836 5.04806 11.5239 5.04806H9.24525C9.08563 5.04806 8.95194 5.10194 8.84419 5.20969C8.73656 5.31731 8.68275 5.45094 8.68275 5.61056C8.68275 5.77019 8.73656 5.90381 8.84419 6.01144C8.95194 6.11919 9.08563 6.17306 9.24525 6.17306H11.5239ZM11.5239 4.00969C11.6836 4.00969 11.8173 3.95581 11.925 3.84806C12.0326 3.74044 12.0864 3.60681 12.0864 3.44719C12.0864 3.28756 12.0326 3.15388 11.925 3.04613C11.8173 2.9385 11.6836 2.88469 11.5239 2.88469H9.24525C9.08563 2.88469 8.95194 2.9385 8.84419 3.04613C8.73656 3.15388 8.68275 3.28756 8.68275 3.44719C8.68275 3.60681 8.73656 3.74044 8.84419 3.84806C8.95194 3.95581 9.08563 4.00969 9.24525 4.00969H11.5239ZM4.90388 6.49031C4.47313 6.49031 4.09569 6.52494 3.77156 6.59419C3.44756 6.66344 3.16006 6.77356 2.90906 6.92456C2.68031 7.05819 2.50681 7.20769 2.38856 7.37306C2.27019 7.53844 2.211 7.71581 2.211 7.90519C2.211 8.03606 2.26125 8.14544 2.36175 8.23331C2.46225 8.32131 2.58656 8.36531 2.73469 8.36531H7.07306C7.22119 8.36531 7.34544 8.31819 7.44581 8.22394C7.54631 8.12981 7.59656 8.0135 7.59656 7.875C7.59656 7.70575 7.53863 7.54156 7.42275 7.38244C7.30688 7.22331 7.13213 7.07069 6.8985 6.92456C6.64763 6.77356 6.36013 6.66344 6.036 6.59419C5.712 6.52494 5.33463 6.49031 4.90388 6.49031ZM4.90388 5.50969C5.26825 5.50969 5.57806 5.382 5.83331 5.12663C6.08869 4.87138 6.21638 4.56156 6.21638 4.19719C6.21638 3.83269 6.08869 3.52281 5.83331 3.26756C5.57806 3.01231 5.26825 2.88469 4.90388 2.88469C4.5395 2.88469 4.22963 3.01231 3.97425 3.26756C3.719 3.52281 3.59138 3.83269 3.59138 4.19719C3.59138 4.56156 3.719 4.87138 3.97425 5.12663C4.22963 5.382 4.5395 5.50969 4.90388 5.50969ZM1.35581 11.25C0.976937 11.25 0.65625 11.1188 0.39375 10.8563C0.13125 10.5938 0 10.2731 0 9.89419V1.35581C0 0.976937 0.13125 0.65625 0.39375 0.39375C0.65625 0.13125 0.976937 0 1.35581 0H12.8942C13.2731 0 13.5938 0.13125 13.8563 0.39375C14.1188 0.65625 14.25 0.976937 14.25 1.35581V9.89419C14.25 10.2731 14.1188 10.5938 13.8563 10.8563C13.5938 11.1188 13.2731 11.25 12.8942 11.25H1.35581ZM1.35581 10.125H12.8942C12.9519 10.125 13.0048 10.1009 13.0528 10.0528C13.1009 10.0048 13.125 9.95194 13.125 9.89419V1.35581C13.125 1.29806 13.1009 1.24519 13.0528 1.19719C13.0048 1.14906 12.9519 1.125 12.8942 1.125H1.35581C1.29806 1.125 1.24519 1.14906 1.19719 1.19719C1.14906 1.24519 1.125 1.29806 1.125 1.35581V9.89419C1.125 9.95194 1.14906 10.0048 1.19719 10.0528C1.24519 10.1009 1.29806 10.125 1.35581 10.125Z" fill="var(--fill-0, #666666)"/>
</svg>
