<svg preserveAspectRatio="none" width="100%" height="100%" overflow="visible" style="display: block;" viewBox="0 0 16 16" fill="none" xmlns="http://www.w3.org/2000/svg">
<g id="Vector">
<path d="M6.03847 11.6667C5.70171 11.6667 5.41667 11.55 5.18335 11.3167C4.95002 11.0833 4.83335 10.7983 4.83335 10.4615V2.87182C4.83335 2.53506 4.95002 2.25002 5.18335 2.01668C5.41667 1.78335 5.70171 1.66668 6.03847 1.66668H11.6282C11.9649 1.66668 12.25 1.78335 12.4833 2.01668C12.7166 2.25002 12.8333 2.53506 12.8333 2.87182V10.4615C12.8333 10.7983 12.7166 11.0833 12.4833 11.3167C12.25 11.55 11.9649 11.6667 11.6282 11.6667H6.03847ZM6.03847 10.6667H11.6282C11.6795 10.6667 11.7265 10.6453 11.7692 10.6026C11.812 10.5598 11.8333 10.5128 11.8333 10.4615V2.87182C11.8333 2.82053 11.812 2.77351 11.7692 2.73077C11.7265 2.68803 11.6795 2.66667 11.6282 2.66667H6.03847C5.98718 2.66667 5.94017 2.68803 5.89743 2.73077C5.85469 2.77351 5.83332 2.82053 5.83332 2.87182V10.4615C5.83332 10.5128 5.85469 10.5598 5.89743 10.6026C5.94017 10.6453 5.98718 10.6667 6.03847 10.6667ZM3.70515 14C3.36841 14 3.08337 13.8833 2.85003 13.65C2.6167 13.4166 2.50003 13.1316 2.50003 12.7948V4.20515H3.50002V12.7948C3.50002 12.8461 3.52138 12.8931 3.56412 12.9359C3.60686 12.9786 3.65387 13 3.70515 13H10.2948V14H3.70515Z" fill="var(--fill-0, #666666)"/>
</g>
</svg>
