<svg preserveAspectRatio="none" width="100%" height="100%" overflow="visible" style="display: block;" viewBox="0 0 23 10.4808" fill="none" xmlns="http://www.w3.org/2000/svg">
<path id="Vector" d="M0 10.4808V9.2615C0 8.59617 0.347417 8.04967 1.04225 7.622C1.73725 7.1945 2.64308 6.98075 3.75975 6.98075C3.94425 6.98075 4.13008 6.9865 4.31725 6.998C4.50442 7.0095 4.69292 7.03192 4.88275 7.06525C4.68792 7.37692 4.54333 7.70033 4.449 8.0355C4.35483 8.37083 4.30775 8.71475 4.30775 9.06725V10.4808H0ZM6 10.4808V9.10575C6 8.63758 6.13142 8.20967 6.39425 7.822C6.65708 7.43417 7.03592 7.09608 7.53075 6.80775C8.02558 6.51925 8.61025 6.30292 9.28475 6.15875C9.95908 6.01442 10.6963 5.94225 11.4963 5.94225C12.3116 5.94225 13.0564 6.01442 13.7307 6.15875C14.4051 6.30292 14.9897 6.51925 15.4845 6.80775C15.9795 7.09608 16.3558 7.43417 16.6135 7.822C16.8712 8.20967 17 8.63758 17 9.10575V10.4808H6ZM18.6923 10.4808V9.07025C18.6923 8.69408 18.6477 8.33958 18.5587 8.00675C18.4696 7.67408 18.3359 7.36025 18.1578 7.06525C18.3539 7.03192 18.5414 7.0095 18.7203 6.998C18.8991 6.9865 19.0757 6.98075 19.25 6.98075C20.3667 6.98075 21.2708 7.192 21.9625 7.6145C22.6542 8.03683 23 8.58583 23 9.2615V10.4808H18.6923ZM3.757 6.0095C3.28567 6.0095 2.883 5.84192 2.549 5.50675C2.215 5.17158 2.048 4.76867 2.048 4.298C2.048 3.82117 2.21567 3.41833 2.551 3.0895C2.88617 2.76067 3.28908 2.59625 3.75975 2.59625C4.23658 2.59625 4.641 2.76067 4.973 3.0895C5.30517 3.41833 5.47125 3.82217 5.47125 4.301C5.47125 4.76567 5.30692 5.16658 4.97825 5.50375C4.64975 5.84092 4.24267 6.0095 3.757 6.0095ZM19.25 6.0095C18.7833 6.0095 18.3814 5.84092 18.0443 5.50375C17.7071 5.16658 17.5385 4.76567 17.5385 4.301C17.5385 3.82217 17.7071 3.41833 18.0443 3.0895C18.3814 2.76067 18.7839 2.59625 19.2518 2.59625C19.7339 2.59625 20.1394 2.76067 20.4682 3.0895C20.7971 3.41833 20.9615 3.82117 20.9615 4.298C20.9615 4.76867 20.7975 5.17158 20.4695 5.50675C20.1415 5.84192 19.735 6.0095 19.25 6.0095ZM11.5035 5.19225C10.7832 5.19225 10.1698 4.93983 9.6635 4.435C9.15717 3.93033 8.904 3.31742 8.904 2.59625C8.904 1.86058 9.15633 1.244 9.661 0.7465C10.1658 0.248833 10.7788 0 11.5 0C12.2355 0 12.8521 0.2485 13.3497 0.7455C13.8472 1.24233 14.096 1.85808 14.096 2.59275C14.096 3.31292 13.8476 3.92625 13.3508 4.43275C12.8538 4.93908 12.238 5.19225 11.5035 5.19225Z" fill="var(--fill-0, #666666)"/>
</svg>
