<svg preserveAspectRatio="none" width="100%" height="100%" overflow="visible" style="display: block;" viewBox="0 0 14.25 14.25" fill="none" xmlns="http://www.w3.org/2000/svg">
<path id="Vector" d="M7.11675 11.3364C7.33088 11.3364 7.51175 11.2626 7.65938 11.1148C7.807 10.9669 7.88081 10.7859 7.88081 10.5716C7.88081 10.3575 7.80688 10.1766 7.659 10.029C7.51113 9.8815 7.33013 9.80775 7.116 9.80775C6.90188 9.80775 6.721 9.88169 6.57338 10.0296C6.42575 10.1774 6.35194 10.3584 6.35194 10.5726C6.35194 10.7867 6.42588 10.9676 6.57375 11.1152C6.72163 11.2627 6.90263 11.3364 7.11675 11.3364ZM6.58556 8.65088H7.64138C7.651 8.28175 7.70506 7.98681 7.80356 7.76606C7.90219 7.54544 8.14138 7.25294 8.52113 6.88856C8.851 6.55869 9.10363 6.25406 9.279 5.97469C9.4545 5.69544 9.54225 5.36563 9.54225 4.98525C9.54225 4.33963 9.31031 3.83531 8.84644 3.47231C8.38244 3.10944 7.83363 2.928 7.2 2.928C6.574 2.928 6.056 3.09506 5.646 3.42919C5.23588 3.76331 4.94331 4.15681 4.76831 4.60969L5.73169 4.99613C5.82306 4.74713 5.97931 4.50456 6.20044 4.26844C6.42156 4.03244 6.74994 3.91444 7.18556 3.91444C7.62881 3.91444 7.95644 4.03581 8.16844 4.27856C8.38056 4.52144 8.48663 4.7885 8.48663 5.07975C8.48663 5.33462 8.414 5.56781 8.26875 5.77931C8.12363 5.99081 7.93856 6.19512 7.71356 6.39225C7.22119 6.8365 6.91013 7.19088 6.78038 7.45538C6.6505 7.71975 6.58556 8.11825 6.58556 8.65088ZM7.12631 14.25C6.14081 14.25 5.2145 14.063 4.34737 13.689C3.48025 13.315 2.726 12.8074 2.08462 12.1663C1.44325 11.5252 0.935437 10.7713 0.561187 9.9045C0.187062 9.03775 0 8.11169 0 7.12631C0 6.14081 0.187 5.2145 0.561 4.34737C0.935 3.48025 1.44256 2.726 2.08369 2.08462C2.72481 1.44325 3.47875 0.935437 4.3455 0.561187C5.21225 0.187062 6.13831 0 7.12369 0C8.10919 0 9.0355 0.187 9.90263 0.561C10.7698 0.935 11.524 1.44256 12.1654 2.08369C12.8068 2.72481 13.3146 3.47875 13.6888 4.3455C14.0629 5.21225 14.25 6.13831 14.25 7.12369C14.25 8.10919 14.063 9.0355 13.689 9.90263C13.315 10.7698 12.8074 11.524 12.1663 12.1654C11.5252 12.8068 10.7713 13.3146 9.9045 13.6888C9.03775 14.0629 8.11169 14.25 7.12631 14.25ZM7.125 13.125C8.8 13.125 10.2188 12.5438 11.3813 11.3813C12.5438 10.2188 13.125 8.8 13.125 7.125C13.125 5.45 12.5438 4.03125 11.3813 2.86875C10.2188 1.70625 8.8 1.125 7.125 1.125C5.45 1.125 4.03125 1.70625 2.86875 2.86875C1.70625 4.03125 1.125 5.45 1.125 7.125C1.125 8.8 1.70625 10.2188 2.86875 11.3813C4.03125 12.5438 5.45 13.125 7.125 13.125Z" fill="var(--fill-0, #13A9E9)"/>
</svg>
