<svg xmlns="http://www.w3.org/2000/svg" width="24" height="24" viewBox="0 0 24 24" preserveAspectRatio="xMidYMid meet">
  <g transform="translate(0.0000 0.0000) scale(1.600000)">
    <g id="Vector">
<path d="M13.5 0H1.5C0.75 0 0 0.675 0 1.5V3.7575C0 4.2975 0.3225 4.7625 0.75 5.025V13.5C0.75 14.325 1.575 15 2.25 15H12.75C13.425 15 14.25 14.325 14.25 13.5V5.025C14.6775 4.7625 15 4.2975 15 3.7575V1.5C15 0.675 14.25 0 13.5 0ZM12.75 13.5H2.25V5.25H12.75V13.5ZM13.5 3.75H1.5V1.5H13.5V3.75Z" fill="var(--fill-0, white)"/>
<path d="M9.75 7.5H5.25V9H9.75V7.5Z" fill="var(--fill-0, white)"/>
</g>
  </g>
</svg>
