<svg xmlns="http://www.w3.org/2000/svg" width="24" height="24" viewBox="0 0 24 24" preserveAspectRatio="xMidYMid meet">
  <g transform="translate(0.0000 0.0000) scale(1.333333)">
    <g id="Vector">
<path d="M4.5 14.7115C4.16684 14.7115 3.88162 14.5929 3.64436 14.3556C3.40711 14.1184 3.28849 13.8332 3.28849 13.5C3.28849 13.1668 3.40711 12.8816 3.64436 12.6444C3.88162 12.4071 4.16684 12.2885 4.5 12.2885C4.83316 12.2885 5.11838 12.4071 5.35564 12.6444C5.59289 12.8816 5.71151 13.1668 5.71151 13.5C5.71151 13.8332 5.59289 14.1184 5.35564 14.3556C5.11838 14.5929 4.83316 14.7115 4.5 14.7115ZM9 14.7115C8.66684 14.7115 8.38162 14.5929 8.14436 14.3556C7.90711 14.1184 7.78849 13.8332 7.78849 13.5C7.78849 13.1668 7.90711 12.8816 8.14436 12.6444C8.38162 12.4071 8.66684 12.2885 9 12.2885C9.33316 12.2885 9.61838 12.4071 9.85564 12.6444C10.0929 12.8816 10.2115 13.1668 10.2115 13.5C10.2115 13.8332 10.0929 14.1184 9.85564 14.3556C9.61838 14.5929 9.33316 14.7115 9 14.7115ZM13.5 14.7115C13.1668 14.7115 12.8816 14.5929 12.6444 14.3556C12.4071 14.1184 12.2885 13.8332 12.2885 13.5C12.2885 13.1668 12.4071 12.8816 12.6444 12.6444C12.8816 12.4071 13.1668 12.2885 13.5 12.2885C13.8332 12.2885 14.1184 12.4071 14.3556 12.6444C14.5929 12.8816 14.7115 13.1668 14.7115 13.5C14.7115 13.8332 14.5929 14.1184 14.3556 14.3556C14.1184 14.5929 13.8332 14.7115 13.5 14.7115ZM4.5 10.2115C4.16684 10.2115 3.88162 10.0929 3.64436 9.85564C3.40711 9.61838 3.28849 9.33316 3.28849 9C3.28849 8.66684 3.40711 8.38163 3.64436 8.14436C3.88162 7.90711 4.16684 7.78849 4.5 7.78849C4.83316 7.78849 5.11838 7.90711 5.35564 8.14436C5.59289 8.38163 5.71151 8.66684 5.71151 9C5.71151 9.33316 5.59289 9.61838 5.35564 9.85564C5.11838 10.0929 4.83316 10.2115 4.5 10.2115ZM9 10.2115C8.66684 10.2115 8.38162 10.0929 8.14436 9.85564C7.90711 9.61838 7.78849 9.33316 7.78849 9C7.78849 8.66684 7.90711 8.38163 8.14436 8.14436C8.38162 7.90711 8.66684 7.78849 9 7.78849C9.33316 7.78849 9.61838 7.90711 9.85564 8.14436C10.0929 8.38163 10.2115 8.66684 10.2115 9C10.2115 9.33316 10.0929 9.61838 9.85564 9.85564C9.61838 10.0929 9.33316 10.2115 9 10.2115ZM13.5 10.2115C13.1668 10.2115 12.8816 10.0929 12.6444 9.85564C12.4071 9.61838 12.2885 9.33316 12.2885 9C12.2885 8.66684 12.4071 8.38163 12.6444 8.14436C12.8816 7.90711 13.1668 7.78849 13.5 7.78849C13.8332 7.78849 14.1184 7.90711 14.3556 8.14436C14.5929 8.38163 14.7115 8.66684 14.7115 9C14.7115 9.33316 14.5929 9.61838 14.3556 9.85564C14.1184 10.0929 13.8332 10.2115 13.5 10.2115ZM4.5 5.71151C4.16684 5.71151 3.88162 5.59289 3.64436 5.35564C3.40711 5.11837 3.28849 4.83316 3.28849 4.5C3.28849 4.16684 3.40711 3.88163 3.64436 3.64436C3.88162 3.40711 4.16684 3.28849 4.5 3.28849C4.83316 3.28849 5.11838 3.40711 5.35564 3.64436C5.59289 3.88163 5.71151 4.16684 5.71151 4.5C5.71151 4.83316 5.59289 5.11837 5.35564 5.35564C5.11838 5.59289 4.83316 5.71151 4.5 5.71151ZM9 5.71151C8.66684 5.71151 8.38162 5.59289 8.14436 5.35564C7.90711 5.11837 7.78849 4.83316 7.78849 4.5C7.78849 4.16684 7.90711 3.88163 8.14436 3.64436C8.38162 3.40711 8.66684 3.28849 9 3.28849C9.33316 3.28849 9.61838 3.40711 9.85564 3.64436C10.0929 3.88163 10.2115 4.16684 10.2115 4.5C10.2115 4.83316 10.0929 5.11837 9.85564 5.35564C9.61838 5.59289 9.33316 5.71151 9 5.71151ZM13.5 5.71151C13.1668 5.71151 12.8816 5.59289 12.6444 5.35564C12.4071 5.11837 12.2885 4.83316 12.2885 4.5C12.2885 4.16684 12.4071 3.88163 12.6444 3.64436C12.8816 3.40711 13.1668 3.28849 13.5 3.28849C13.8332 3.28849 14.1184 3.40711 14.3556 3.64436C14.5929 3.88163 14.7115 4.16684 14.7115 4.5C14.7115 4.83316 14.5929 5.11837 14.3556 5.35564C14.1184 5.59289 13.8332 5.71151 13.5 5.71151Z" fill="var(--fill-0, white)"/>
</g>
  </g>
</svg>
