<svg xmlns="http://www.w3.org/2000/svg" width="24" height="24" viewBox="0 0 24 24" preserveAspectRatio="xMidYMid meet">
  <g transform="translate(0.0000 3.6000) scale(1.600000)">
    <path id="Vector" d="M5.25 6.5625C3.495 6.5625 0 7.44 0 9.1875V10.5H10.5V9.1875C10.5 7.44 7.005 6.5625 5.25 6.5625ZM1.755 9C2.385 8.565 3.9075 8.0625 5.25 8.0625C6.5925 8.0625 8.115 8.565 8.745 9H1.755ZM5.25 5.25C6.6975 5.25 7.875 4.0725 7.875 2.625C7.875 1.1775 6.6975 0 5.25 0C3.8025 0 2.625 1.1775 2.625 2.625C2.625 4.0725 3.8025 5.25 5.25 5.25ZM5.25 1.5C5.8725 1.5 6.375 2.0025 6.375 2.625C6.375 3.2475 5.8725 3.75 5.25 3.75C4.6275 3.75 4.125 3.2475 4.125 2.625C4.125 2.0025 4.6275 1.5 5.25 1.5ZM10.53 6.6075C11.4 7.2375 12 8.0775 12 9.1875V10.5H15V9.1875C15 7.6725 12.375 6.81 10.53 6.6075ZM9.75 5.25C11.1975 5.25 12.375 4.0725 12.375 2.625C12.375 1.1775 11.1975 0 9.75 0C9.345 0 8.97 0.0974999 8.625 0.2625C9.0975 0.93 9.375 1.7475 9.375 2.625C9.375 3.5025 9.0975 4.32 8.625 4.9875C8.97 5.1525 9.345 5.25 9.75 5.25Z" fill="var(--fill-0, white)"/>
  </g>
</svg>
