<svg xmlns="http://www.w3.org/2000/svg" width="24" height="24" viewBox="0 0 24 24" preserveAspectRatio="xMidYMid meet">
  <g transform="translate(0.3274 0.0000) scale(1.600000)">
    <path id="Vector" d="M12.8695 8.235C12.8995 7.995 12.922 7.755 12.922 7.5C12.922 7.245 12.8995 7.005 12.8695 6.765L14.452 5.5275C14.5945 5.415 14.632 5.2125 14.542 5.0475L13.042 2.4525C12.9745 2.3325 12.847 2.265 12.712 2.265C12.667 2.265 12.622 2.2725 12.5845 2.2875L10.717 3.0375C10.327 2.7375 9.907 2.49 9.4495 2.3025L9.1645 0.315C9.142 0.135 8.9845 0 8.797 0H5.797C5.6095 0 5.452 0.135 5.4295 0.315L5.1445 2.3025C4.687 2.49 4.267 2.745 3.877 3.0375L2.0095 2.2875C1.9645 2.2725 1.9195 2.265 1.8745 2.265C1.747 2.265 1.6195 2.3325 1.552 2.4525L0.0519987 5.0475C-0.0455013 5.2125 -0.000501228 5.415 0.141999 5.5275L1.7245 6.765C1.6945 7.005 1.672 7.2525 1.672 7.5C1.672 7.7475 1.6945 7.995 1.7245 8.235L0.141999 9.4725C-0.000501228 9.585 -0.0380013 9.7875 0.0519987 9.9525L1.552 12.5475C1.6195 12.6675 1.747 12.735 1.882 12.735C1.927 12.735 1.972 12.7275 2.0095 12.7125L3.877 11.9625C4.267 12.2625 4.687 12.51 5.1445 12.6975L5.4295 14.685C5.452 14.865 5.6095 15 5.797 15H8.797C8.9845 15 9.142 14.865 9.1645 14.685L9.4495 12.6975C9.907 12.51 10.327 12.255 10.717 11.9625L12.5845 12.7125C12.6295 12.7275 12.6745 12.735 12.7195 12.735C12.847 12.735 12.9745 12.6675 13.042 12.5475L14.542 9.9525C14.632 9.7875 14.5945 9.585 14.452 9.4725L12.8695 8.235ZM11.3845 6.9525C11.4145 7.185 11.422 7.3425 11.422 7.5C11.422 7.6575 11.407 7.8225 11.3845 8.0475L11.2795 8.895L11.947 9.42L12.757 10.05L12.232 10.9575L11.2795 10.575L10.4995 10.26L9.8245 10.77C9.502 11.01 9.1945 11.19 8.887 11.3175L8.092 11.64L7.972 12.4875L7.822 13.5H6.772L6.5095 11.64L5.7145 11.3175C5.392 11.1825 5.092 11.01 4.792 10.785L4.1095 10.26L3.3145 10.5825L2.362 10.965L1.837 10.0575L2.647 9.4275L3.3145 8.9025L3.2095 8.055C3.187 7.8225 3.172 7.65 3.172 7.5C3.172 7.35 3.187 7.1775 3.2095 6.9525L3.3145 6.105L2.647 5.58L1.837 4.95L2.362 4.0425L3.3145 4.425L4.0945 4.74L4.7695 4.23C5.092 3.99 5.3995 3.81 5.707 3.6825L6.502 3.36L6.622 2.5125L6.772 1.5H7.8145L8.077 3.36L8.872 3.6825C9.1945 3.8175 9.4945 3.99 9.7945 4.215L10.477 4.74L11.272 4.4175L12.2245 4.035L12.7495 4.9425L11.947 5.58L11.2795 6.105L11.3845 6.9525ZM7.297 4.5C5.6395 4.5 4.297 5.8425 4.297 7.5C4.297 9.1575 5.6395 10.5 7.297 10.5C8.9545 10.5 10.297 9.1575 10.297 7.5C10.297 5.8425 8.9545 4.5 7.297 4.5ZM7.297 9C6.472 9 5.797 8.325 5.797 7.5C5.797 6.675 6.472 6 7.297 6C8.122 6 8.797 6.675 8.797 7.5C8.797 8.325 8.122 9 7.297 9Z" fill="var(--fill-0, white)"/>
  </g>
</svg>
