<svg xmlns="http://www.w3.org/2000/svg" width="24" height="24" viewBox="0 0 24 24" preserveAspectRatio="xMidYMid meet">
  <g transform="translate(0.3877 0.0000) scale(1.571884)">
    <path id="Vector" d="M1.69331 13.0125C1.21169 13.0125 0.809063 12.8507 0.485438 12.5271C0.161813 12.2034 0 11.8008 0 11.3192V1.69331C0 1.21169 0.161813 0.809063 0.485438 0.485438C0.809063 0.161813 1.21169 0 1.69331 0H11.3567C11.8383 0 12.2409 0.161813 12.5646 0.485438C12.8882 0.809063 13.05 1.21169 13.05 1.69331V5.37413C13.05 5.57475 12.9786 5.74675 12.8359 5.89013C12.6931 6.03363 12.522 6.10538 12.3225 6.10538C12.1229 6.10538 11.9505 6.03363 11.8054 5.89013C11.6601 5.74675 11.5875 5.57475 11.5875 5.37413V1.69331C11.5875 1.63556 11.5634 1.58269 11.5153 1.53469C11.4673 1.48656 11.4144 1.4625 11.3567 1.4625H1.69331C1.63556 1.4625 1.58269 1.48656 1.53469 1.53469C1.48656 1.58269 1.4625 1.63556 1.4625 1.69331V11.3192C1.4625 11.3769 1.48656 11.4298 1.53469 11.4778C1.58269 11.5259 1.63556 11.55 1.69331 11.55H4.86788C5.0685 11.55 5.2405 11.6214 5.38388 11.7641C5.52738 11.9069 5.59913 12.078 5.59913 12.2775C5.59913 12.4771 5.52738 12.6495 5.38388 12.7946C5.2405 12.9399 5.0685 13.0125 4.86788 13.0125H1.69331ZM1.4625 11.4774V11.55V1.4625V6.14288V6.08663V11.4774ZM2.8125 9.50981C2.8125 9.70931 2.88425 9.88169 3.02775 10.0269C3.17113 10.1721 3.34313 10.2446 3.54375 10.2446H5.01919C5.21981 10.2446 5.39188 10.1733 5.53538 10.0307C5.67875 9.88794 5.75044 9.71675 5.75044 9.51713C5.75044 9.31763 5.67875 9.14525 5.53538 9C5.39188 8.85488 5.21981 8.78231 5.01919 8.78231H3.54375C3.34313 8.78231 3.17113 8.85363 3.02775 8.99625C2.88425 9.139 2.8125 9.31019 2.8125 9.50981ZM2.8125 6.5025C2.8125 6.70213 2.88425 6.8745 3.02775 7.01963C3.17113 7.16488 3.34313 7.2375 3.54375 7.2375H7.43663C7.63725 7.2375 7.80925 7.16613 7.95263 7.02338C8.09613 6.88063 8.16788 6.7095 8.16788 6.51C8.16788 6.31038 8.09613 6.138 7.95263 5.99288C7.80925 5.84763 7.63725 5.775 7.43663 5.775H3.54375C3.34313 5.775 3.17113 5.84638 3.02775 5.98913C2.88425 6.13188 2.8125 6.303 2.8125 6.5025ZM2.8125 3.49537C2.8125 3.69487 2.88425 3.86725 3.02775 4.0125C3.17113 4.15763 3.34313 4.23019 3.54375 4.23019H9.50625C9.70688 4.23019 9.87888 4.15888 10.0223 4.01625C10.1658 3.8735 10.2375 3.70231 10.2375 3.50269C10.2375 3.30319 10.1658 3.13081 10.0223 2.98556C9.87888 2.84044 9.70688 2.76788 9.50625 2.76788H3.54375C3.34313 2.76788 3.17113 2.83919 3.02775 2.98181C2.88425 3.12456 2.8125 3.29575 2.8125 3.49537ZM11.0207 15.2683C9.97931 15.2683 9.09469 14.9029 8.36681 14.1722C7.63894 13.4416 7.275 12.5555 7.275 11.514C7.275 10.4726 7.64038 9.588 8.37113 8.86013C9.10175 8.13225 9.98781 7.76831 11.0293 7.76831C12.0707 7.76831 12.9553 8.13363 13.6832 8.86425C14.4111 9.595 14.775 10.4811 14.775 11.5224C14.775 12.5639 14.4096 13.4486 13.6789 14.1765C12.9483 14.9044 12.0622 15.2683 11.0207 15.2683ZM11.025 11.5183C11.35 11.5183 11.6219 11.4089 11.8406 11.1902C12.0594 10.9714 12.1688 10.6996 12.1688 10.3746C12.1688 10.0496 12.0594 9.77769 11.8406 9.55894C11.6219 9.34019 11.35 9.23081 11.025 9.23081C10.7 9.23081 10.4281 9.34019 10.2094 9.55894C9.99063 9.77769 9.88125 10.0496 9.88125 10.3746C9.88125 10.6996 9.99063 10.9714 10.2094 11.1902C10.4281 11.4089 10.7 11.5183 11.025 11.5183ZM11.025 13.8058C11.3328 13.8058 11.6426 13.7346 11.9546 13.5923C12.2666 13.45 12.5289 13.2616 12.7414 13.0269C12.8193 12.9567 12.8351 12.8745 12.789 12.7804C12.7428 12.6861 12.6706 12.6251 12.5726 12.5972C12.313 12.5269 12.0526 12.4625 11.7915 12.4039C11.5305 12.3453 11.275 12.3159 11.025 12.3159C10.775 12.3159 10.5226 12.3441 10.2679 12.4003C10.013 12.4566 9.7495 12.5222 9.47738 12.5972C9.37938 12.6298 9.30725 12.6889 9.261 12.7746C9.21488 12.8601 9.23075 12.9442 9.30863 13.0269C9.52113 13.2741 9.78338 13.4656 10.0954 13.6016C10.4074 13.7378 10.7173 13.8058 11.025 13.8058Z" fill="var(--fill-0, white)"/>
  </g>
</svg>
