<svg preserveAspectRatio="none" width="100%" height="100%" overflow="visible" style="display: block;" viewBox="0 0 14.25 14.25" fill="none" xmlns="http://www.w3.org/2000/svg">
<path id="Vector" d="M7.125 10.5C8.0615 10.5 8.85813 10.1716 9.51488 9.51488C10.1716 8.85813 10.5 8.0615 10.5 7.125C10.5 6.1885 10.1716 5.39187 9.51488 4.73512C8.85813 4.07837 8.0615 3.75 7.125 3.75C6.1885 3.75 5.39188 4.07837 4.73513 4.73512C4.07838 5.39187 3.75 6.1885 3.75 7.125C3.75 8.0615 4.07838 8.85813 4.73513 9.51488C5.39188 10.1716 6.1885 10.5 7.125 10.5ZM7.12631 14.25C6.14081 14.25 5.2145 14.063 4.34737 13.689C3.48025 13.315 2.726 12.8074 2.08462 12.1663C1.44325 11.5252 0.935437 10.7713 0.561187 9.9045C0.187062 9.03775 0 8.11169 0 7.12631C0 6.14081 0.187 5.2145 0.561 4.34737C0.935 3.48025 1.44256 2.726 2.08369 2.08462C2.72481 1.44325 3.47875 0.935437 4.3455 0.561187C5.21225 0.187062 6.13831 0 7.12369 0C8.10919 0 9.0355 0.187 9.90263 0.561C10.7698 0.935 11.524 1.44256 12.1654 2.08369C12.8068 2.72481 13.3146 3.47875 13.6888 4.3455C14.0629 5.21225 14.25 6.13831 14.25 7.12369C14.25 8.10919 14.063 9.0355 13.689 9.90263C13.315 10.7698 12.8074 11.524 12.1663 12.1654C11.5252 12.8068 10.7713 13.3146 9.9045 13.6888C9.03775 14.0629 8.11169 14.25 7.12631 14.25Z" fill="var(--fill-0, #C4C4C4)"/>
</svg>
