<svg xmlns="http://www.w3.org/2000/svg" width="24" height="24" viewBox="0 0 24 24" preserveAspectRatio="xMidYMid meet">
  <g transform="translate(0.0000 0.3076) scale(1.745455)">
    <path id="Vector" d="M6.875 6.41667C5.99271 6.41667 5.23745 6.10256 4.60923 5.47433C3.98085 4.84596 3.66667 4.09063 3.66667 3.20833C3.66667 2.32604 3.98085 1.57078 4.60923 0.942563C5.23745 0.314188 5.99271 0 6.875 0C7.75729 0 8.51255 0.314188 9.14077 0.942563C9.76915 1.57078 10.0833 2.32604 10.0833 3.20833C10.0833 4.09063 9.76915 4.84596 9.14077 5.47433C8.51255 6.10256 7.75729 6.41667 6.875 6.41667ZM0 13.3975V11.3596C0 10.9107 0.121917 10.495 0.36575 10.1124C0.609584 9.72988 0.935458 9.43578 1.34337 9.23015C2.24935 8.78602 3.16334 8.45289 4.08535 8.23075C5.00737 8.00861 5.93725 7.89754 6.875 7.89754C7.81275 7.89754 8.74263 8.00861 9.66465 8.23075C10.5867 8.45289 11.5007 8.78602 12.4066 9.23015C12.8145 9.43578 13.1404 9.72988 13.3842 10.1124C13.6281 10.495 13.75 10.9107 13.75 11.3596V13.3975H0ZM1.375 12.0225H12.375V11.3596C12.375 11.1739 12.3212 11.0021 12.2137 10.8439C12.1061 10.686 11.9601 10.557 11.7757 10.4571C10.9859 10.0681 10.1806 9.77342 9.35985 9.57298C8.53898 9.37269 7.71069 9.27254 6.875 9.27254C6.03931 9.27254 5.21102 9.37269 4.39015 9.57298C3.56942 9.77342 2.76413 10.0681 1.97427 10.4571C1.78987 10.557 1.64389 10.686 1.53633 10.8439C1.42878 11.0021 1.375 11.1739 1.375 11.3596V12.0225ZM6.875 5.04167C7.37917 5.04167 7.81076 4.86215 8.16979 4.50313C8.52882 4.1441 8.70833 3.7125 8.70833 3.20833C8.70833 2.70417 8.52882 2.27257 8.16979 1.91354C7.81076 1.55451 7.37917 1.375 6.875 1.375C6.37083 1.375 5.93924 1.55451 5.58021 1.91354C5.22118 2.27257 5.04167 2.70417 5.04167 3.20833C5.04167 3.7125 5.22118 4.1441 5.58021 4.50313C5.93924 4.86215 6.37083 5.04167 6.875 5.04167Z" fill="var(--fill-0, white)"/>
  </g>
</svg>
