<svg preserveAspectRatio="none" width="100%" height="100%" overflow="visible" style="display: block;" viewBox="0 0 21.2305 16.5" fill="none" xmlns="http://www.w3.org/2000/svg">
<path id="Vector" d="M9.54025 10.1943L14.8595 4.9L13.7902 3.83075L9.54025 8.08075L7.41525 5.95575L6.3615 7.00975L9.54025 10.1943ZM0 16.5V15H21.2305V16.5H0ZM2.923 14C2.41783 14 1.99025 13.825 1.64025 13.475C1.29025 13.125 1.11525 12.6974 1.11525 12.1923V1.80775C1.11525 1.30258 1.29025 0.875 1.64025 0.525C1.99025 0.175 2.41783 0 2.923 0H18.3075C18.8127 0 19.2402 0.175 19.5902 0.525C19.9402 0.875 20.1152 1.30258 20.1152 1.80775V12.1923C20.1152 12.6974 19.9402 13.125 19.5902 13.475C19.2402 13.825 18.8127 14 18.3075 14H2.923ZM2.923 12.5H18.3075C18.3845 12.5 18.455 12.468 18.519 12.404C18.5832 12.3398 18.6152 12.2693 18.6152 12.1923V1.80775C18.6152 1.73075 18.5832 1.66025 18.519 1.59625C18.455 1.53208 18.3845 1.5 18.3075 1.5H2.923C2.846 1.5 2.7755 1.53208 2.7115 1.59625C2.64733 1.66025 2.61525 1.73075 2.61525 1.80775V12.1923C2.61525 12.2693 2.64733 12.3398 2.7115 12.404C2.7755 12.468 2.846 12.5 2.923 12.5Z" fill="var(--fill-0, #666666)"/>
</svg>
