<svg preserveAspectRatio="none" width="100%" height="100%" overflow="visible" style="display: block;" viewBox="0 0 24 24" fill="none" xmlns="http://www.w3.org/2000/svg">
<g id="Vector">
<path d="M9.69235 21.5L9.31157 18.4538C9.04362 18.3641 8.76894 18.2384 8.48752 18.0769C8.20611 17.9154 7.9545 17.7423 7.7327 17.5577L4.91155 18.75L2.6039 14.75L5.04427 12.9058C5.02119 12.7571 5.00484 12.6077 4.99522 12.4577C4.98561 12.3077 4.9808 12.1583 4.9808 12.0096C4.9808 11.8673 4.98561 11.7228 4.99522 11.576C5.00484 11.4292 5.02119 11.2686 5.04427 11.0942L2.6039 9.25L4.91155 5.26927L7.72307 6.45197C7.96411 6.26094 8.22148 6.08626 8.4952 5.92793C8.76893 5.76958 9.03785 5.64233 9.30195 5.54618L9.69235 2.50002H14.3077L14.6884 5.5558C14.9884 5.66477 15.2599 5.79201 15.5029 5.93752C15.7458 6.08304 15.991 6.25452 16.2385 6.45197L19.0884 5.26927L21.3961 9.25L18.9173 11.1231C18.9532 11.2846 18.9727 11.4356 18.9759 11.576C18.9791 11.7163 18.9807 11.8577 18.9807 12C18.9807 12.1359 18.9775 12.274 18.9711 12.4144C18.9647 12.5548 18.9416 12.7154 18.9019 12.8962L21.3615 14.75L19.0538 18.75L16.2385 17.548C15.991 17.7455 15.7384 17.9202 15.4807 18.0721C15.223 18.224 14.9589 18.3481 14.6884 18.4442L14.3077 21.5H9.69235ZM11 20H12.9654L13.325 17.3212C13.8352 17.1878 14.3016 16.9984 14.724 16.7529C15.1465 16.5074 15.5538 16.1917 15.9461 15.8058L18.4308 16.85L19.4154 15.15L17.2461 13.5154C17.3295 13.2564 17.3862 13.0026 17.4163 12.7539C17.4465 12.5051 17.4615 12.2539 17.4615 12C17.4615 11.7397 17.4465 11.4885 17.4163 11.2462C17.3862 11.0039 17.3295 10.7564 17.2461 10.5039L19.4346 8.85L18.45 7.15L15.9365 8.20963C15.6019 7.85193 15.201 7.5359 14.7337 7.26155C14.2663 6.98718 13.7936 6.79295 13.3154 6.67885L13 4H11.0154L10.6846 6.66922C10.1744 6.78974 9.7032 6.97436 9.27115 7.22307C8.8391 7.47179 8.42693 7.79231 8.03463 8.18463L5.55 7.15L4.56537 8.85L6.725 10.4596C6.64167 10.6968 6.58333 10.9436 6.55 11.2C6.51667 11.4564 6.5 11.7263 6.5 12.0096C6.5 12.2699 6.51667 12.525 6.55 12.775C6.58333 13.025 6.63846 13.2718 6.71537 13.5154L4.56537 15.15L5.55 16.85L8.025 15.8C8.40448 16.1898 8.81025 16.509 9.2423 16.7577C9.67435 17.0064 10.1519 17.1974 10.675 17.3308L11 20ZM12.0115 15C12.8436 15 13.5516 14.708 14.1355 14.124C14.7195 13.54 15.0115 12.832 15.0115 12C15.0115 11.168 14.7195 10.46 14.1355 9.87598C13.5516 9.29201 12.8436 9.00002 12.0115 9.00002C11.1692 9.00002 10.4587 9.29201 9.87982 9.87598C9.30099 10.46 9.01157 11.168 9.01157 12C9.01157 12.832 9.30099 13.54 9.87982 14.124C10.4587 14.708 11.1692 15 12.0115 15Z" fill="var(--fill-0, #666666)"/>
</g>
</svg>
