<svg preserveAspectRatio="none" width="100%" height="100%" overflow="visible" style="display: block;" viewBox="0 0 55.6803 52.5" fill="none" xmlns="http://www.w3.org/2000/svg">
<path id="Vector" d="M31.3567 28.8415C35.2606 26.1042 38.3307 23.0883 40.5668 19.794C42.8029 16.4996 43.9209 13.2315 43.9209 9.98958C43.9209 8.19097 43.5863 6.80556 42.9169 5.83333C42.2475 4.86111 41.3538 4.375 40.2357 4.375C37.6705 4.375 35.4757 6.31653 33.6514 10.1996C31.8265 14.0831 30.9141 18.6798 30.9141 23.9896C30.9141 24.9322 30.9495 25.8052 31.0205 26.6088C31.0915 27.4128 31.2035 28.157 31.3567 28.8415ZM3.63739 39.7454C3.23344 40.1489 2.73055 40.346 2.12875 40.3368C1.52694 40.3275 1.02406 40.1209 0.620102 39.717C0.216143 39.313 0.0141638 38.8038 0.0141638 38.1894C0.0141638 37.5749 0.216143 37.0689 0.620102 36.6712L3.74969 33.5417L0.591664 30.3836C0.188192 29.9797 -0.00892607 29.4722 0.000310046 28.8611C0.00954616 28.2496 0.216143 27.7419 0.620102 27.3379C1.02406 26.9344 1.53326 26.7327 2.14771 26.7327C2.76215 26.7327 3.26819 26.9344 3.66583 27.3379L6.79541 30.4959L9.95344 27.3379C10.3511 26.9344 10.8571 26.7327 11.4716 26.7327C12.086 26.7327 12.5952 26.9344 12.9992 27.3379C13.4026 27.7419 13.6044 28.2511 13.6044 28.8655C13.6044 29.48 13.4026 29.986 12.9992 30.3836L9.84114 33.5417L12.9992 36.6997C13.4026 37.1036 13.6044 37.6065 13.6044 38.2083C13.6044 38.8101 13.4026 39.313 12.9992 39.717C12.5952 40.1209 12.086 40.3229 11.4716 40.3229C10.8571 40.3229 10.3511 40.1209 9.95344 39.717L6.79541 36.5874L3.63739 39.7454ZM35.9285 39.375C34.4702 39.375 33.1567 39.0627 31.9881 38.438C30.8195 37.8139 29.8351 36.8416 29.035 35.5214C28.1794 35.9666 27.2972 36.4117 26.3881 36.8565C25.4791 37.3017 24.5552 37.7373 23.6166 38.1631C23.0259 38.4101 22.4426 38.4222 21.8666 38.1996C21.2905 37.9774 20.8941 37.5708 20.6773 36.9797C20.4605 36.3891 20.4914 35.8201 20.7699 35.2727C21.0489 34.7258 21.4855 34.3245 22.0795 34.0689C23.0182 33.6425 23.9243 33.2135 24.7978 32.7819C25.6709 32.3502 26.5167 31.9042 27.3353 31.4439C27.0548 30.3744 26.8446 29.1929 26.7046 27.8994C26.5641 26.6058 26.4939 25.2129 26.4939 23.7205C26.4939 16.8139 27.7906 11.1339 30.384 6.68062C32.9769 2.22687 36.2608 0 40.2357 0C42.6143 0 44.5449 0.907811 46.0275 2.72344C47.5101 4.53857 48.2515 7.02042 48.2515 10.169C48.2515 14.2562 46.8848 18.3086 44.1514 22.3264C41.4175 26.3445 37.6649 29.9447 32.8938 33.1268C33.3089 33.766 33.7828 34.2456 34.3156 34.5654C34.8484 34.8853 35.4308 35.0452 36.0627 35.0452C37.2892 35.0452 38.6391 34.4534 40.1125 33.2697C41.5859 32.086 42.9825 30.4716 44.3023 28.4266C44.6576 27.9142 45.1185 27.5664 45.6848 27.3831C46.2516 27.1999 46.806 27.2305 47.348 27.475C47.8905 27.754 48.2945 28.1721 48.5599 28.7292C48.8253 29.2862 48.9038 29.8752 48.7954 30.4959C48.6792 31.4346 48.654 32.26 48.7196 32.9722C48.7852 33.6848 48.975 34.3403 49.2891 34.9387C49.6439 34.7667 50.0122 34.5572 50.3938 34.3102C50.7753 34.0633 51.2017 33.7043 51.6727 33.2332C52.1253 32.8108 52.6498 32.5724 53.2463 32.5179C53.8427 32.464 54.3803 32.6222 54.8592 32.9926C55.3749 33.4 55.6476 33.8943 55.6773 34.4757C55.7074 35.0571 55.511 35.559 55.0881 35.9815C53.989 37.0621 52.9067 37.8979 51.8411 38.4891C50.7756 39.0797 49.7621 39.375 48.8005 39.375C47.8546 39.375 47.0226 38.9776 46.3046 38.1828C45.5871 37.3885 45.0356 36.3033 44.6501 34.9271C43.3828 36.3295 41.9787 37.4213 40.4377 38.2025C38.8972 38.9842 37.3942 39.375 35.9285 39.375ZM4.49708 52.5C3.78201 52.5 3.18239 52.2582 2.69823 51.7745C2.21406 51.2908 1.97198 50.6917 1.97198 49.9771C1.97198 49.262 2.21357 48.6624 2.69677 48.1782C3.18045 47.6941 3.77982 47.452 4.49489 47.452C5.20948 47.452 5.80909 47.6938 6.29375 48.1775C6.77791 48.6607 7.02 49.2598 7.02 49.9749C7.02 50.69 6.77816 51.2896 6.29448 51.7737C5.8108 52.2579 5.21166 52.5 4.49708 52.5ZM15.6307 52.5C14.9157 52.5 14.316 52.2582 13.8319 51.7745C13.3477 51.2908 13.1056 50.6917 13.1056 49.9771C13.1056 49.262 13.3475 48.6624 13.8311 48.1782C14.3143 47.6941 14.9135 47.452 15.6285 47.452C16.3436 47.452 16.9432 47.6938 17.4274 48.1775C17.9116 48.6607 18.1536 49.2598 18.1536 49.9749C18.1536 50.69 17.9118 51.2896 17.4281 51.7737C16.9444 52.2579 16.3453 52.5 15.6307 52.5ZM26.7644 52.5C26.0493 52.5 25.4497 52.2582 24.9655 51.7745C24.4814 51.2908 24.2393 50.6917 24.2393 49.9771C24.2393 49.262 24.4811 48.6624 24.9648 48.1782C25.4485 47.6941 26.0476 47.452 26.7622 47.452C27.4773 47.452 28.0769 47.6938 28.561 48.1775C29.0452 48.6607 29.2873 49.2598 29.2873 49.9749C29.2873 50.69 29.0455 51.2896 28.5618 51.7737C28.0781 52.2579 27.479 52.5 26.7644 52.5ZM37.898 52.5C37.183 52.5 36.5833 52.2582 36.0992 51.7745C35.615 51.2908 35.3729 50.6917 35.3729 49.9771C35.3729 49.262 35.6148 48.6624 36.0984 48.1782C36.5821 47.6941 37.1812 47.452 37.8958 47.452C38.6109 47.452 39.2105 47.6938 39.6947 48.1775C40.1789 48.6607 40.4209 49.2598 40.4209 49.9749C40.4209 50.69 40.1791 51.2896 39.6954 51.7737C39.2122 52.2579 38.6131 52.5 37.898 52.5ZM49.0317 52.5C48.3171 52.5 47.7177 52.2582 47.2335 51.7745C46.7489 51.2908 46.5066 50.6917 46.5066 49.9771C46.5066 49.262 46.7484 48.6624 47.2321 48.1782C47.7158 47.6941 48.3151 47.452 49.0302 47.452C49.7448 47.452 50.3442 47.6938 50.8283 48.1775C51.3125 48.6607 51.5546 49.2598 51.5546 49.9749C51.5546 50.69 51.313 51.2896 50.8298 51.7737C50.3461 52.2579 49.7467 52.5 49.0317 52.5Z" fill="var(--fill-0, #666666)"/>
</svg>
