<svg preserveAspectRatio="none" width="100%" height="100%" overflow="visible" style="display: block;" viewBox="0 0 15.8333 15.8333" fill="none" xmlns="http://www.w3.org/2000/svg">
<title>Status Warning (Figma Icon/Info/Warning)</title>
<path id="Vector" fill-rule="evenodd" clip-rule="evenodd" d="M7.91667 11.859C8.10736 11.859 8.26722 11.7944 8.39625 11.6654C8.52528 11.5364 8.58979 11.3765 8.58979 11.1858C8.58979 10.9951 8.52528 10.8353 8.39625 10.7062C8.26722 10.5774 8.10736 10.5129 7.91667 10.5129C7.72597 10.5129 7.56611 10.5774 7.43708 10.7062C7.30806 10.8353 7.24354 10.9951 7.24354 11.1858C7.24354 11.3765 7.30806 11.5364 7.43708 11.6654C7.56611 11.7944 7.72597 11.859 7.91667 11.859ZM7.29167 8.81417H8.54167V3.81417H7.29167V8.81417ZM7.91812 15.8333C6.82312 15.8333 5.79389 15.6256 4.83042 15.21C3.86694 14.7944 3.02889 14.2305 2.31625 13.5181C1.60361 12.8058 1.03937 11.9681 0.623541 11.005C0.207847 10.0419 0 9.01299 0 7.91812C0 6.82312 0.207778 5.79389 0.623333 4.83042C1.03889 3.86694 1.60285 3.02889 2.31521 2.31625C3.02757 1.60361 3.86528 1.03937 4.82833 0.623541C5.79139 0.207847 6.82035 0 7.91521 0C9.01021 0 10.0394 0.207777 11.0029 0.623333C11.9664 1.03889 12.8044 1.60285 13.5171 2.31521C14.2297 3.02757 14.794 3.86528 15.2098 4.82833C15.6255 5.79139 15.8333 6.82035 15.8333 7.91521C15.8333 9.01021 15.6256 10.0394 15.21 11.0029C14.7944 11.9664 14.2305 12.8044 13.5181 13.5171C12.8058 14.2297 11.9681 14.794 11.005 15.2098C10.0419 15.6255 9.01299 15.8333 7.91812 15.8333Z" fill="#ED6C02"/>
</svg>
