<svg preserveAspectRatio="none" width="100%" height="100%" overflow="visible" style="display: block;" viewBox="0 0 17.4358 15.5704" fill="none" xmlns="http://www.w3.org/2000/svg">
<path id="Vector" d="M11.8621 8.15687L10.9263 7.22104C11.0513 6.5309 10.8544 5.91042 10.3356 5.35958C9.81701 4.80889 9.18056 4.59604 8.42625 4.72104L7.49042 3.78521C7.67847 3.70076 7.87132 3.63743 8.06896 3.59521C8.2666 3.55299 8.48292 3.53187 8.71792 3.53187C9.66347 3.53187 10.4661 3.86174 11.1258 4.52146C11.7856 5.18118 12.1154 5.98382 12.1154 6.92937C12.1154 7.16437 12.0943 7.3834 12.0521 7.58646C12.0099 7.78937 11.9465 7.97951 11.8621 8.15687ZM14.5127 10.7498L13.5929 9.88771C14.1207 9.48493 14.5894 9.04396 14.9992 8.56479C15.4089 8.08562 15.7596 7.54049 16.0513 6.92937C15.3568 5.5266 14.3603 4.41201 13.0617 3.58562C11.7631 2.75924 10.3151 2.34604 8.71792 2.34604C8.31514 2.34604 7.91931 2.37382 7.53042 2.42937C7.14153 2.48493 6.75958 2.56826 6.38458 2.67937L5.41354 1.70833C5.94021 1.49889 6.47813 1.34451 7.02729 1.24521C7.57646 1.14576 8.14 1.09604 8.71792 1.09604C10.6708 1.09604 12.432 1.63451 14.0015 2.71146C15.5709 3.7884 16.7157 5.19437 17.4358 6.92937C17.1271 7.67396 16.7283 8.36896 16.2396 9.01437C15.7507 9.65965 15.1751 10.2381 14.5127 10.7498ZM15.1858 15.5704L11.8142 12.2242C11.3868 12.3824 10.9132 12.5117 10.3933 12.6121C9.87361 12.7125 9.31514 12.7627 8.71792 12.7627C6.75958 12.7627 4.9984 12.2242 3.43438 11.1473C1.87021 10.0703 0.725417 8.66437 0 6.92937C0.307639 6.19326 0.705069 5.5066 1.19229 4.86937C1.67951 4.23201 2.21583 3.67937 2.80125 3.21146L0.493542 0.878124L1.37188 0L16.064 14.6921L15.1858 15.5704ZM3.67958 4.08958C3.23931 4.44 2.81111 4.86125 2.395 5.35333C1.97889 5.84528 1.64208 6.37062 1.38458 6.92937C2.07903 8.33215 3.07556 9.44674 4.37417 10.2731C5.67278 11.0995 7.12069 11.5127 8.71792 11.5127C9.09722 11.5127 9.47493 11.4806 9.85104 11.4165C10.227 11.3524 10.5459 11.2862 10.8077 11.2179L9.75313 10.1377C9.61104 10.1953 9.44653 10.2412 9.25958 10.2754C9.07264 10.3097 8.89208 10.3269 8.71792 10.3269C7.77236 10.3269 6.96972 9.99701 6.31 9.33729C5.65028 8.67757 5.32042 7.87493 5.32042 6.92937C5.32042 6.76062 5.33757 6.5841 5.37188 6.39979C5.40604 6.21549 5.45194 6.04694 5.50958 5.89417L3.67958 4.08958Z" fill="var(--fill-0, #7C7C7C)"/>
</svg>
