<svg preserveAspectRatio="none" width="100%" height="100%" overflow="visible" style="display: block;" viewBox="0 0 17.4358 11.6667" fill="none" xmlns="http://www.w3.org/2000/svg">
<path id="Vector" d="M8.71979 9.23083C9.6641 9.23083 10.4661 8.90035 11.1258 8.23938C11.7856 7.5784 12.1154 6.77576 12.1154 5.83146C12.1154 4.88715 11.7849 4.08514 11.124 3.42542C10.463 2.76569 9.66035 2.43583 8.71604 2.43583C7.77174 2.43583 6.96972 2.76632 6.31 3.42729C5.65028 4.08826 5.32042 4.8909 5.32042 5.83521C5.32042 6.77951 5.6509 7.58153 6.31188 8.24125C6.97285 8.90097 7.77549 9.23083 8.71979 9.23083ZM8.71792 8.08333C8.09292 8.08333 7.56167 7.86458 7.12417 7.42708C6.68667 6.98958 6.46792 6.45833 6.46792 5.83333C6.46792 5.20833 6.68667 4.67708 7.12417 4.23958C7.56167 3.80208 8.09292 3.58333 8.71792 3.58333C9.34292 3.58333 9.87417 3.80208 10.3117 4.23958C10.7492 4.67708 10.9679 5.20833 10.9679 5.83333C10.9679 6.45833 10.7492 6.98958 10.3117 7.42708C9.87417 7.86458 9.34292 8.08333 8.71792 8.08333ZM8.71896 11.6667C6.80271 11.6667 5.05667 11.1381 3.48083 10.0808C1.905 9.02375 0.744722 7.60792 0 5.83333C0.744722 4.05875 1.90458 2.64292 3.47958 1.58583C5.05472 0.528611 6.80049 0 8.71688 0C10.6331 0 12.3792 0.528611 13.955 1.58583C15.5308 2.64292 16.6911 4.05875 17.4358 5.83333C16.6911 7.60792 15.5313 9.02375 13.9563 10.0808C12.3811 11.1381 10.6353 11.6667 8.71896 11.6667ZM8.71792 10.4167C10.2874 10.4167 11.7283 10.0035 13.0408 9.17708C14.3533 8.35069 15.3568 7.23611 16.0513 5.83333C15.3568 4.43056 14.3533 3.31597 13.0408 2.48958C11.7283 1.66319 10.2874 1.25 8.71792 1.25C7.14847 1.25 5.7075 1.66319 4.395 2.48958C3.0825 3.31597 2.07903 4.43056 1.38458 5.83333C2.07903 7.23611 3.0825 8.35069 4.395 9.17708C5.7075 10.0035 7.14847 10.4167 8.71792 10.4167Z" fill="var(--fill-0, #7C7C7C)"/>
</svg>
