<svg preserveAspectRatio="none" width="100%" height="100%" overflow="visible" style="display: block;" viewBox="0 0 20.269 17.5" fill="none" xmlns="http://www.w3.org/2000/svg">
<path id="Vector" d="M0 17.5L10.1345 0L20.269 17.5H0ZM2.5845 16H17.6845L10.1345 3L2.5845 16ZM10.1345 14.8078C10.3633 14.8078 10.5552 14.7303 10.71 14.5755C10.8648 14.4207 10.9423 14.2288 10.9423 14C10.9423 13.7712 10.8648 13.5793 10.71 13.4245C10.5552 13.2697 10.3633 13.1923 10.1345 13.1923C9.90567 13.1923 9.71383 13.2697 9.559 13.4245C9.40417 13.5793 9.32675 13.7712 9.32675 14C9.32675 14.2288 9.40417 14.4207 9.559 14.5755C9.71383 14.7303 9.90567 14.8078 10.1345 14.8078ZM9.3845 12.1923H10.8845V7.19225H9.3845V12.1923Z" fill="var(--fill-0, #666666)"/>
</svg>
